<svg width="72" height="64" viewBox="0 0 72 64" fill="none" xmlns="http://www.w3.org/2000/svg">
<path d="M29.0719 4C32.1511 -1.33333 39.8491 -1.33333 42.9283 4L70.6412 52C73.7204 57.3333 69.8713 64 63.7129 64H8.28733C2.12892 64 -1.72008 57.3333 1.35912 52L29.0719 4Z" fill="#F8CC03"/>
<path d="M33.2001 42.1L31.9501 18.7H40.2001L38.9501 42.1H33.2001ZM36.0501 55.55C34.7501 55.55 33.6668 55.1 32.8001 54.2C31.9335 53.3 31.5001 52.2167 31.5001 50.95C31.5001 49.6167 31.9335 48.5167 32.8001 47.65C33.6668 46.75 34.7501 46.3 36.0501 46.3C37.3835 46.3 38.4668 46.75 39.3001 47.65C40.1668 48.5167 40.6001 49.6167 40.6001 50.95C40.6001 52.2167 40.1668 53.3 39.3001 54.2C38.4668 55.1 37.3835 55.55 36.0501 55.55Z" fill="black"/>
</svg>
